<svg width="256" height="256" viewBox="0 0 256 256" fill="none" xmlns="http://www.w3.org/2000/svg">
<rect width="256" height="256" fill="#E31E41"/>
<path fill-rule="evenodd" clip-rule="evenodd" d="M126.486 19.5496L232.284 60.9154H233V194.062H232.842L126.486 235.529L22.6545 194.062H22.2927V60.9154H22.7123L126.486 19.5496Z" fill="white"/>
<path d="M127.455 44C126.969 44 126.484 44.1062 126.029 44.2882L48.4104 76.0104C48.3953 76.0255 48.365 76.0255 48.3498 76.0407C48.3043 76.0559 48.274 76.071 48.2437 76.1014C48.1679 76.1317 48.0921 76.1621 48.0163 76.2076C47.9708 76.2227 47.9253 76.2531 47.8798 76.2834C47.804 76.3289 47.7434 76.3745 47.6676 76.4048C47.6524 76.4351 47.6221 76.4503 47.607 76.4655C47.516 76.5262 47.4402 76.5868 47.3644 76.6475C47.3492 76.6627 47.3189 76.6779 47.3038 76.7082C47.228 76.7689 47.137 76.8599 47.0612 76.9358C46.9854 77.0268 46.9096 77.1027 46.8186 77.1937C46.8035 77.2392 46.7732 77.2695 46.758 77.2999C46.6974 77.3757 46.6519 77.4516 46.6064 77.5426C46.5912 77.5426 46.5912 77.5578 46.5761 77.5578C46.5154 77.664 46.4548 77.7702 46.3942 77.8764C46.3942 77.8915 46.3942 77.9067 46.3942 77.9219C46.3335 78.0129 46.3032 78.1191 46.2577 78.2253C46.2577 78.2405 46.2426 78.2556 46.2426 78.2708C46.1971 78.377 46.1668 78.4984 46.1213 78.6046C46.1213 78.6197 46.1213 78.6349 46.1213 78.6501C46.091 78.7563 46.0758 78.8625 46.0606 78.9535C46.0455 78.999 46.0455 79.0293 46.0303 79.0597C46.0303 79.1659 46.0152 79.2721 46 79.3783C46 79.4238 46 79.4693 46 79.4996C46 79.5452 46 79.5755 46 79.6058C46 79.6362 46 79.6513 46 79.6817V175.394C46 176.972 46.9551 178.398 48.4104 178.99L126.029 210.712C126.499 210.909 127 211 127.5 211C128.015 211 128.501 210.909 128.971 210.712L206.59 179.005C208.045 178.398 209 176.972 209 175.394V79.6058C209 79.3024 208.97 78.999 208.894 78.7108C208.879 78.6652 208.879 78.6349 208.864 78.6046C208.788 78.3467 208.697 78.0888 208.576 77.846C208.545 77.8157 208.53 77.7702 208.515 77.7398C208.378 77.4971 208.227 77.2695 208.045 77.0571C208.03 77.0268 208.015 77.0116 208.015 77.0116C207.999 76.9965 207.984 76.9813 207.969 76.9661C207.772 76.7537 207.529 76.5565 207.287 76.3896C207.075 76.2379 206.832 76.1166 206.59 76.0104L206.438 75.9497L128.971 44.2882C128.485 44.091 127.97 44 127.455 44ZM127.5 52.0709L194.841 79.6058L127.5 107.11L60.1594 79.6058L127.5 52.0709ZM53.7619 85.3859L123.619 113.922V201.336L53.7619 172.785V85.3859Z" fill="#E31E41"/>
<path d="M170.164 107.781C163.266 109.81 157.784 119.207 157.995 128.751L158.155 135.957L153.883 137.338C152.12 137.904 150.695 140.339 150.748 142.74L151.521 177.611C151.574 179.991 153.085 181.434 154.846 180.762L187.783 168.417C189.409 167.812 190.699 165.422 190.649 163.147L189.91 129.857C189.86 127.581 188.485 126.136 186.858 126.657L182.88 127.947L182.725 120.973C182.519 111.681 176.948 105.776 170.164 107.781ZM170.226 110.604C175.925 108.918 180.54 113.791 180.713 121.586L180.869 128.603L160.257 135.278L160.097 128.093C159.92 120.087 164.437 112.335 170.226 110.604ZM153.947 140.224L159.1 138.55C159.214 138.548 159.327 138.503 159.439 138.437L181.767 131.133C181.881 131.131 181.993 131.086 182.083 131.021L186.897 129.439C187.439 129.258 187.905 129.732 187.922 130.512L188.661 163.865C188.679 164.645 188.263 165.413 187.699 165.615L154.782 177.876C154.195 178.099 153.707 177.625 153.689 176.825L152.918 142.039C152.877 141.218 153.337 140.427 153.947 140.224ZM171.013 146.086C169.25 146.673 167.959 148.999 168.013 151.422C168.041 152.707 168.473 153.689 169.121 154.201L169.21 158.183C169.244 159.742 170.198 160.691 171.328 160.286C172.457 159.882 173.355 158.281 173.32 156.722L173.232 152.761C173.826 151.841 174.208 150.568 174.18 149.304C174.126 146.881 172.753 145.499 171.013 146.086Z" fill="white"/>
<path fill-rule="evenodd" clip-rule="evenodd" d="M179.637 109.452C182.117 112.064 183.618 116.125 183.725 120.95L183.85 126.581L186.549 125.706L186.553 125.705C187.756 125.319 188.9 125.679 189.699 126.518C190.467 127.323 190.881 128.516 190.91 129.834L191.648 163.124C191.678 164.448 191.32 165.786 190.723 166.885C190.137 167.967 189.251 168.937 188.134 169.353C188.133 169.354 188.133 169.354 188.132 169.354L155.202 181.696C155.201 181.697 155.2 181.697 155.199 181.698C153.961 182.169 152.738 181.895 151.854 181.056C151.008 180.252 150.552 179.014 150.521 177.633L149.748 142.763C149.717 141.365 150.114 139.976 150.77 138.848C151.418 137.734 152.386 136.769 153.577 136.386C153.577 136.386 153.577 136.386 153.578 136.386L157.139 135.235L156.995 128.773C156.885 123.811 158.253 118.895 160.549 114.945C162.836 111.01 166.109 107.932 169.881 106.822C173.652 105.707 177.125 106.807 179.637 109.452ZM178.186 110.829C176.165 108.7 173.46 107.849 170.447 108.74L170.446 108.74C167.32 109.66 164.403 112.294 162.278 115.95C160.161 119.593 158.893 124.147 158.995 128.729L159.171 136.68L154.189 138.29C153.617 138.473 152.991 139.008 152.499 139.854C152.015 140.685 151.725 141.714 151.748 142.718L152.521 177.588C152.543 178.588 152.869 179.262 153.232 179.606C153.557 179.915 153.968 180.027 154.49 179.828L154.495 179.826L187.432 167.48L187.435 167.48C187.942 167.291 188.514 166.764 188.965 165.931C188.986 165.894 189.006 165.856 189.025 165.817C188.782 166.129 188.456 166.404 188.043 166.554C188.04 166.555 188.038 166.556 188.036 166.557L155.138 178.81C155.137 178.811 155.135 178.811 155.133 178.812C154.488 179.056 153.81 178.919 153.328 178.454C152.887 178.029 152.702 177.427 152.689 176.847L151.918 142.073C151.891 141.472 152.044 140.886 152.32 140.403C152.594 139.925 153.034 139.474 153.631 139.275L153.638 139.273L158.931 137.554L158.971 137.553L159.026 137.52L181.597 130.137L181.598 130.137L181.622 130.12L186.58 128.49C186.581 128.49 186.582 128.489 186.583 128.489C187.238 128.272 187.888 128.466 188.326 128.921C188.732 129.342 188.909 129.922 188.922 130.49L189.65 163.329C189.65 163.275 189.65 163.222 189.649 163.169L188.911 129.879C188.89 128.921 188.591 128.254 188.252 127.898C187.945 127.576 187.588 127.474 187.164 127.609C187.163 127.609 187.163 127.609 187.162 127.609L181.91 129.312L181.726 120.995C181.627 116.528 180.239 112.991 178.186 110.829ZM176.818 113.229C175.18 111.51 172.988 110.831 170.511 111.563C167.935 112.333 165.537 114.486 163.789 117.497C162.049 120.497 161.013 124.255 161.097 128.071L161.227 133.913L179.852 127.881L179.713 121.609C179.631 117.887 178.489 114.984 176.818 113.229ZM178.266 111.85C180.37 114.059 181.622 117.49 181.713 121.564L181.885 129.325L159.287 136.643L159.098 128.116C159.005 123.925 160.138 119.804 162.06 116.493C163.973 113.195 166.728 110.606 169.94 109.646L169.943 109.645C173.164 108.692 176.129 109.606 178.266 111.85ZM186.92 130.484L182.508 131.934C182.354 132.02 182.174 132.087 181.976 132.117L159.837 139.359C159.698 139.43 159.519 139.502 159.308 139.534L154.263 141.173C154.263 141.173 154.263 141.173 154.262 141.173C154.246 141.179 154.153 141.227 154.056 141.396C153.962 141.561 153.906 141.775 153.916 141.989L153.917 142.003L154.689 176.803C154.689 176.817 154.689 176.83 154.69 176.843L187.359 164.674C187.359 164.674 187.36 164.674 187.361 164.673C187.373 164.665 187.442 164.621 187.521 164.477C187.61 164.314 187.666 164.1 187.662 163.887L186.922 130.534C186.922 130.516 186.921 130.499 186.92 130.484ZM173.94 145.864C174.743 146.677 175.149 147.907 175.18 149.282C175.209 150.624 174.844 151.975 174.238 153.03L174.32 156.7C174.341 157.669 174.075 158.635 173.633 159.425C173.199 160.202 172.53 160.918 171.665 161.228C170.732 161.562 169.807 161.33 169.153 160.681C168.538 160.069 168.231 159.167 168.21 158.205L168.131 154.641C167.413 153.861 167.041 152.709 167.013 151.444C166.982 150.055 167.335 148.691 167.959 147.577C168.578 146.472 169.512 145.532 170.695 145.137C171.911 144.728 173.093 145.005 173.94 145.864ZM172.517 147.269C172.229 146.977 171.855 146.857 171.332 147.033L171.329 147.034C170.751 147.227 170.158 147.743 169.704 148.554C169.255 149.355 168.989 150.366 169.012 151.4C169.037 152.503 169.405 153.15 169.741 153.416L170.111 153.708L170.209 158.161C170.223 158.759 170.41 159.11 170.563 159.262C170.678 159.376 170.795 159.415 170.99 159.345C171.254 159.251 171.599 158.964 171.888 158.449C172.168 157.948 172.333 157.334 172.32 156.744L172.226 152.476L172.392 152.218C172.877 151.469 173.204 150.393 173.18 149.326C173.157 148.278 172.85 147.605 172.517 147.269Z" fill="white"/>
</svg>
